<svg width="75" height="74" viewBox="0 0 75 74" fill="none" xmlns="http://www.w3.org/2000/svg">
<mask id="mask0_626_1372" style="mask-type:luminance" maskUnits="userSpaceOnUse" x="5" y="3" width="65" height="68">
<path d="M37.5001 6.1665L45.5984 12.0742L55.6239 12.0557L58.7026 21.5955L66.8241 27.4723L63.7084 36.9998L66.8241 46.5273L58.7026 52.4042L55.6239 61.944L45.5984 61.9255L37.5001 67.8332L29.4017 61.9255L19.3762 61.944L16.2975 52.4042L8.17603 46.5273L11.2917 36.9998L8.17603 27.4723L16.2975 21.5955L19.3762 12.0557L29.4017 12.0742L37.5001 6.1665Z" fill="white" stroke="white" stroke-width="6.16667" stroke-linecap="round" stroke-linejoin="round"/>
<path d="M26.7084 36.9998L34.4167 44.7082L49.8334 29.2915" stroke="black" stroke-width="6.16667" stroke-linecap="round" stroke-linejoin="round"/>
</mask>
<g mask="url(#mask0_626_1372)">
<g filter="url(#filter0_dd_626_1372)">
<path d="M0.5 0H74.5V74H0.5V0Z" fill="#E33629"/>
</g>
</g>
<ellipse cx="40.5" cy="38" rx="18.5" ry="19" fill="#E33629"/>
<path d="M31.86 23.6265L38.1083 34.0172H38.3299L44.6059 23.6265H50.4663L41.7242 37.8132L50.6048 52H44.6475L38.3299 41.6786H38.1083L31.7907 52H25.8611L34.8248 37.8132L25.9719 23.6265H31.86Z" fill="white"/>
<defs>
<filter id="filter0_dd_626_1372" x="-3.5" y="0" width="82" height="82" filterUnits="userSpaceOnUse" color-interpolation-filters="sRGB">
<feFlood flood-opacity="0" result="BackgroundImageFix"/>
<feColorMatrix in="SourceAlpha" type="matrix" values="0 0 0 0 0 0 0 0 0 0 0 0 0 0 0 0 0 0 127 0" result="hardAlpha"/>
<feOffset dy="4"/>
<feGaussianBlur stdDeviation="2"/>
<feComposite in2="hardAlpha" operator="out"/>
<feColorMatrix type="matrix" values="0 0 0 0 0 0 0 0 0 0 0 0 0 0 0 0 0 0 0.25 0"/>
<feBlend mode="normal" in2="BackgroundImageFix" result="effect1_dropShadow_626_1372"/>
<feColorMatrix in="SourceAlpha" type="matrix" values="0 0 0 0 0 0 0 0 0 0 0 0 0 0 0 0 0 0 127 0" result="hardAlpha"/>
<feOffset dy="4"/>
<feGaussianBlur stdDeviation="2"/>
<feComposite in2="hardAlpha" operator="out"/>
<feColorMatrix type="matrix" values="0 0 0 0 0 0 0 0 0 0 0 0 0 0 0 0 0 0 0.25 0"/>
<feBlend mode="normal" in2="effect1_dropShadow_626_1372" result="effect2_dropShadow_626_1372"/>
<feBlend mode="normal" in="SourceGraphic" in2="effect2_dropShadow_626_1372" result="shape"/>
</filter>
</defs>
</svg>
